PathFileType	4	(X/Y/Z)	C:/Users/beibeiliu/ov580/test_trc/User1\sequence.3_training_dense_left.trc
DataRate	CameraRate	NumFrames	NumMarkers	Units	OrigDataRate	OrigDataStartFrame	OrigNumFrames
120	120	12	19	mm	120	152	242
Frame#	Time	ThumbCMC			ThumbMCP			ThumbIP			ThumbTip			IndexMCP			IndexPIP			IndexTip			MiddleMCP			MiddlePIP			MiddleTip			RingMCP			RingPIP			RingTip			PinkyMCP			PinkyPIP			PinkyTip			BackHand1			BackHand2			BackHand3	
		X0	Y0	Z0	X1	Y1	Z1	X2	Y2	Z2	X3	Y3	Z3	X4	Y4	Z4	X5	Y5	Z5	X6	Y6	Z6	X7	Y7	Z7	X8	Y8	Z8	X9	Y9	Z9	X10	Y10	Z10	X11	Y11	Z11	X12	Y12	Z12	X13	Y13	Z13	X14	Y14	Z14	X15	Y15	Z15	X16	Y16	Z16	X17	Y17	Z17	X18	Y18	Z18	
151	1.25833	-177.922	121.636	-11.7643	-143.834	119.737	-13.1072	-114.006	115.097	-22.0621	-96.0193	94.6333	-22.8292	-137.283	79.65	-70.1746	-105.251	70.9395	-62.0269	-97.2478	76.0277	-27.1523	-139.485	52.7833	-66.3691	-105.209	49.3702	-51.8328	-105.242	63.86	-14.647	-139.202	34.0425	-54.9974	-111.568	35.5735	-36.9323	-110.112	46.7281	-9.63372	-152.096	21.6437	-36.65	-126.606	24.1799	-23.9261	-119.952	45.1867	-3.00543	-200.859	50.8177	-35.7242	-223.579	62.0048	-9.8032	-202.993	88.7919	-32.8031	
152	1.26667	-181.327	120.633	-12.2912	-148.085	126.659	-13.9008	-120.306	122.478	-26.0008	-97.5396	105.013	-30.101	-137.794	85.0541	-75.1489	-105.921	80.9115	-70.0503	-93.761	84.3998	-39.8936	-137.731	57.6058	-71.993	-103.7	59.8278	-61.2842	-100.566	69.7448	-24.1034	-140.16	40.2483	-59.377	-108.748	40.875	-46.69	-105.264	55.1439	-13.9782	-147.923	21.7895	-38.3879	-121.178	32.6748	-31.9518	-114.658	53.135	-10.5858	-198.053	51.4742	-31.6158	-220.625	62.2282	-8.69177	-205.331	88.2968	-29.6743	
153	1.275	-183.737	117.626	-11.988	-149.58	130.332	-19.5778	-125.226	122.995	-33.3985	-101.531	111.38	-37.6206	-145.022	84.1087	-77.0039	-107.792	85.1055	-76.786	-95.0084	91.2158	-45.0817	-136.815	62.8327	-78.7102	-104.556	63.9361	-68.0619	-98.9245	79.7569	-33.0897	-140.448	39.1691	-62.4627	-104.557	46.5344	-53.9901	-99.8612	60.9481	-28.1419	-144.529	28.5092	-43.4029	-115.2	35.3987	-37.3692	-107.575	56.3686	-18.8408	-192.543	47.0565	-33.4437	-216.919	55.8256	-3.97734	-206.821	85.6055	-27.8525	
154	1.28333	-184.195	116.21	-12.5038	-150.417	131.647	-24.4141	-124.989	128.836	-41.5589	-105.68	111.877	-46.4503	-145.263	87.3632	-84.6912	-113.324	84.7914	-81.8804	-98.0982	95.3008	-55.4294	-140.633	61.2761	-80.5258	-106.501	70.0876	-76.3805	-99.2963	85.436	-39.1379	-141.683	45.9079	-68.5049	-104.453	49.9401	-61.7129	-97.6352	64.3378	-35.3092	-142.963	27.7844	-46.52	-114.475	41.0243	-48.6401	-103.526	57.9688	-29.7272	-191.411	48.9149	-31.8228	-211.397	52.9965	-0.933825	-203.14	84.6796	-28.8044	
155	1.29167	-184.802	116.803	-9.49122	-152.307	126.486	-26.9174	-129.628	130.108	-43.9904	-104.764	116.296	-56.5337	-152.925	91.1394	-85.8324	-117.823	91.5315	-90.8807	-101.125	101.931	-62.1367	-145.388	64.1208	-85.5852	-108.532	74.5466	-81.8265	-100.14	85.5438	-48.7838	-142.928	47.6174	-74.3094	-108.099	50.757	-73.0831	-97.4653	67.6177	-45.2245	-141.029	31.9568	-54.5358	-114.584	39.9668	-56.065	-100.356	60.8887	-39.6542	-190.831	49.1209	-32.5737	-209.833	53.0044	-0.67634	-205.411	80.7245	-24.7699	
156	1.3	-182.54	115.85	-11.7501	-154.63	126.761	-27.721	-132.58	132.101	-49.05	-107.544	122.811	-60.8392	-155.268	85.8597	-88.6367	-124.163	88.5058	-94.5126	-107.089	101.841	-68.0156	-147.791	61.8699	-90.1992	-114.352	71.3358	-90.1453	-102.564	85.1158	-54.4406	-143.606	43.2103	-79.0674	-111.731	56.3153	-80.9106	-98.7958	68.1589	-52.4549	-146.344	33.0487	-55.6289	-120.218	40.9361	-65.1272	-98.8521	59.3636	-48.9515	-187.707	46.7022	-32.3513	-203.83	51.6667	-1.02961	-201.749	78.5936	-26.2874	
157	1.30833	-182.973	116.694	-7.42319	-155.072	127.165	-24.8961	-135.4	131.92	-50.4876	-114.242	119.885	-65.3072	-163.765	89.9042	-89.8315	-132.826	90.1013	-99.1901	-112.532	105.569	-72.9328	-156.364	61.4614	-89.1828	-120.629	73.6641	-96.2527	-106.667	85.9436	-59.0702	-148.519	42.2996	-79.5786	-117.722	54.7299	-86.4788	-101.534	67.612	-58.8299	-147.382	29.8412	-60.1675	-123.871	40.0101	-71.5682	-106.495	61.8914	-56.4242	-186.839	42.6025	-31.2297	-200.34	46.5802	2.14265	-203.086	81.5342	-21.0605	
158	1.31667	-179.962	112.76	-8.12251	-153.91	127.376	-29.4548	-138.536	128.324	-49.6389	-117.79	122.851	-68.2009	-168.764	87.2419	-90.4034	-138.238	90.7206	-101.597	-117.788	103.126	-76.9389	-160.895	64.2988	-94.3144	-130.285	71.9105	-101.758	-111.281	83.907	-68.5948	-153.498	43.028	-84.4898	-124.281	54.845	-92.2492	-105.339	64.9547	-68.6611	-151.389	28.1711	-62.3849	-128.805	35.177	-76.0726	-107.565	58.6337	-62.1886	-187.434	44.5161	-25.5453	-198.35	45.0091	5.98359	-203.406	79.654	-18.9536	
159	1.325	-177.988	113.98	-3.16349	-153.776	126.186	-30.6466	-140.913	128.765	-55.6465	-122.077	121.526	-74.718	-178.22	91.3916	-86.3789	-145.489	92.7161	-103.877	-125.247	101.168	-80.9514	-171.203	62.038	-89.7693	-136.927	70.1498	-102.382	-118.064	85.2365	-71.8151	-162.707	42.4375	-81.2907	-133.9	55.367	-95.9171	-113.926	67.0217	-71.9556	-159.38	30.2854	-61.6823	-138.916	38.3911	-79.0116	-116.897	58.693	-73.4561	-190.638	43.4872	-22.7064	-197.616	45.2625	8.08512	-202.689	77.2448	-15.0509	
160	1.33333	-176.997	112.452	-0.153934	-155.758	123.495	-28.3105	-144.233	129.404	-55.1211	-127.952	120.171	-80.7147	-185.566	87.1642	-85.4054	-158.862	90.1847	-104.684	-130.861	103.428	-83.4815	-180.324	64.6682	-90.4357	-149.092	71.7418	-103.896	-125.638	83.9327	-72.4317	-174.312	44.2653	-77.9668	-141.012	51.0829	-96.1188	-122.945	63.2391	-75.8571	-165.785	27.8492	-58.1463	-144.401	35.9876	-81.9858	-123.239	59.2599	-75.0948	-194.478	47.9237	-23.1525	-196.65	51.142	12.7945	-205.685	81.8133	-7.91392	
161	1.34167	-176.714	113.609	0.453259	-155.179	125.907	-28.8542	-147.495	127.186	-56.5944	-133.993	120.748	-81.9045	-193.229	91.9838	-81.4038	-169.816	90.917	-104.515	-137.47	100.587	-85.6521	-189.354	64.1821	-83.6514	-159.393	68.5878	-104.08	-132.582	81.0358	-78.0879	-182.642	42.9494	-78.4923	-156.303	52.542	-97.1145	-130.545	62.5168	-75.1581	-173.341	28.78	-54.9276	-158.742	35.4779	-80.2159	-131.128	52.0414	-80.3005	-196.26	47.9714	-19.196	-196.233	48.093	14.8582	-205.344	79.8257	-5.70223	
162	1.35	-176.556	113.508	0.567908	-156.322	123.39	-29.9898	-147.865	127.966	-54.2929	-138.508	119.518	-79.3415	-199.526	93.3099	-79.4397	-171.403	88.747	-102.811	-141.616	99.4117	-87.6315	-196.984	65.5159	-84.879	-166.467	72.754	-104.585	-139.543	82.7397	-80.2467	-190.773	47.4724	-78.4125	-165.183	50.1721	-96.1154	-139.18	59.9469	-78.9625	-182.4	29.2034	-56.8306	-165.642	32.5206	-81.3235	-136.806	52.596	-80.4922	-200.531	49.8141	-14.0976	-199.581	51.843	17.3226	-207.181	87.5218	-0.203609	
